<svg xmlns="http://www.w3.org/2000/svg" aria-hidden="true" style="position:absolute;width:0;height:0;overflow:hidden">

<symbol id="map" viewBox="0 0 16 20" xmlns="http://www.w3.org/2000/svg">
<path d="M8.00006 12C10.2061 12 12.0001 10.206 12.0001 8C12.0001 5.794 10.2061 4 8.00006 4C5.79406 4 4.00006 5.794 4.00006 8C4.00006 10.206 5.79406 12 8.00006 12ZM8.00006 6C9.10306 6 10.0001 6.897 10.0001 8C10.0001 9.103 9.10306 10 8.00006 10C6.89706 10 6.00006 9.103 6.00006 8C6.00006 6.897 6.89706 6 8.00006 6Z" fill="currentColor"/>
<path d="M7.42009 19.814C7.58934 19.9349 7.79211 19.9998 8.00009 19.9998C8.20806 19.9998 8.41084 19.9349 8.58009 19.814C8.88409 19.599 16.0291 14.44 16.0001 8C16.0001 3.589 12.4111 0 8.00009 0C3.58909 0 8.80377e-05 3.589 8.80377e-05 7.995C-0.028912 14.44 7.11609 19.599 7.42009 19.814ZM8.00009 2C11.3091 2 14.0001 4.691 14.0001 8.005C14.0211 12.443 9.61209 16.428 8.00009 17.735C6.38909 16.427 1.97909 12.441 2.00009 8C2.00009 4.691 4.69109 2 8.00009 2Z" fill="currentColor"/>
</symbol>

<symbol id="chevron-up" viewBox="0 0 12 8" fill="none" xmlns="http://www.w3.org/2000/svg">
<path d="M0 5.707L1.414 7.121L5.707 2.828L10 7.121L11.414 5.707L5.707 0L0 5.707Z" fill="currentColor"/>
</symbol>

<symbol id="chevron-down"  viewBox="0 0 12 8" fill="none" xmlns="http://www.w3.org/2000/svg">
<path d="M10 0L5.707 4.293L1.414 0L0 1.414L5.707 7.121L11.414 1.414L10 0Z" fill="currentColor"/>
</symbol>

<symbol id="chevron-left"  viewBox="0 0 8 12" fill="none" xmlns="http://www.w3.org/2000/svg">
<path d="M5.707 0L0 5.707L5.707 11.414L7.121 10L2.828 5.707L7.121 1.414L5.707 0Z" fill="currentColor"/>
</symbol>

<symbol id="chevron-right"  viewBox="0 0 8 12" fill="none" xmlns="http://www.w3.org/2000/svg">
<path d="M1.414 11.414L7.121 5.707L1.414 0L0 1.414L4.293 5.707L0 10L1.414 11.414Z" fill="currentColor"/>
</symbol>

<symbol id="up-arrow-alt" viewBox="0 0 14 14" fill="none" xmlns="http://www.w3.org/2000/svg">
<path d="M5.707 3.828V13.414H7.707V3.828L12 8.121L13.414 6.707L6.707 0L0 6.707L1.414 8.121L5.707 3.828Z" fill="currentColor"/>
</symbol>

<symbol id="down-arrow-alt"  viewBox="0 0 14 14" fill="none" xmlns="http://www.w3.org/2000/svg">
<path d="M13.414 6.707L12 5.293L7.707 9.586V0H5.707V9.586L1.414 5.293L0 6.707L6.707 13.414L13.414 6.707Z" fill="currentColor"/>
</symbol>

<symbol id="left-arrow-alt" viewBox="0 0 14 14" fill="none" xmlns="http://www.w3.org/2000/svg">
<path d="M8.121 12L3.828 7.707H13.414V5.707H3.828L8.121 1.414L6.707 0L0 6.707L6.707 13.414L8.121 12Z" fill="currentColor"/>
</symbol>

<symbol id="right-arrow-alt"  viewBox="0 0 14 14" fill="none" xmlns="http://www.w3.org/2000/svg">
<path d="M5.293 12L6.707 13.414L13.414 6.707L6.707 0L5.293 1.414L9.586 5.707H0V7.707H9.586L5.293 12Z" fill="currentColor"/>
</symbol>

<symbol id="minus"  viewBox="0 0 14 2" fill="none" xmlns="http://www.w3.org/2000/svg">
<path d="M0 0H14V2H0V0Z" fill="currentColor"/>
</symbol>

<symbol id="plus"  viewBox="0 0 14 14" fill="none" xmlns="http://www.w3.org/2000/svg">
<path d="M14 6H8V0H6V6H0V8H6V14H8V8H14V6Z" fill="currentColor"/>
</symbol>

<symbol id="check"  viewBox="0 0 15 12" fill="none" xmlns="http://www.w3.org/2000/svg">
<path d="M4.707 8.293L1.414 5L0 6.414L4.707 11.121L14.414 1.414L13 0L4.707 8.293Z" fill="currentColor"/>
</symbol>

<symbol id="x" viewBox="0 0 12 12" fill="none" xmlns="http://www.w3.org/2000/svg">
<path d="M9.899 0L5.656 4.242L1.414 0L0 1.414L4.242 5.656L0 9.898L1.414 11.312L5.656 7.07L9.899 11.312L11.313 9.898L7.071 5.656L11.313 1.414L9.899 0Z" fill="currentColor"/>
</symbol>

<symbol id="star" viewBox="0 0 20 20" fill="none" xmlns="http://www.w3.org/2000/svg">
<path d="M4.51603 12.3245L3.02603 18.7765C2.97989 18.9718 2.99374 19.1766 3.06577 19.364C3.1378 19.5513 3.26467 19.7126 3.4298 19.8268C3.59492 19.9409 3.79064 20.0026 3.99138 20.0038C4.19212 20.005 4.38855 19.9457 4.55503 19.8335L10 16.2035L15.445 19.8335C15.6154 19.9466 15.8162 20.0048 16.0207 20.0003C16.2251 19.9958 16.4232 19.9288 16.5884 19.8084C16.7536 19.6879 16.878 19.5198 16.9448 19.3265C17.0116 19.1333 17.0176 18.9242 16.962 18.7275L15.133 12.3275L19.669 8.24547C19.8143 8.11466 19.9181 7.94413 19.9674 7.75498C20.0168 7.56583 20.0097 7.36635 19.9469 7.18121C19.8841 6.99607 19.7685 6.83339 19.6142 6.71329C19.46 6.59319 19.2739 6.52094 19.079 6.50547L13.378 6.05147L10.911 0.590467C10.8324 0.414623 10.7045 0.265302 10.5428 0.160527C10.3812 0.055752 10.1927 0 10 0C9.80739 0 9.61887 0.055752 9.45722 0.160527C9.29556 0.265302 9.16769 0.414623 9.08903 0.590467L6.62203 6.05147L0.921026 6.50447C0.729482 6.51964 0.546364 6.58968 0.393581 6.7062C0.240798 6.82272 0.124819 6.98079 0.0595194 7.1615C-0.00578038 7.34221 -0.0176359 7.5379 0.0253712 7.72517C0.0683784 7.91244 0.164427 8.08335 0.302026 8.21747L4.51603 12.3245ZM7.36903 7.99847C7.54752 7.98441 7.71895 7.92258 7.86533 7.81948C8.01171 7.71638 8.12766 7.5758 8.20103 7.41247L10 3.43147L11.799 7.41247C11.8724 7.5758 11.9883 7.71638 12.1347 7.81948C12.2811 7.92258 12.4525 7.98441 12.631 7.99847L16.603 8.31347L13.332 11.2575C13.048 11.5135 12.935 11.9075 13.039 12.2755L14.292 16.6605L10.556 14.1695C10.392 14.0594 10.199 14.0006 10.0015 14.0006C9.80403 14.0006 9.61101 14.0594 9.44703 14.1695L5.54303 16.7725L6.59303 12.2265C6.63153 12.0593 6.62636 11.885 6.57802 11.7204C6.52969 11.5557 6.43981 11.4063 6.31703 11.2865L3.27903 8.32447L7.36903 7.99847Z" fill="currentColor"/>
</symbol>

<symbol id="menu-alt-right"  viewBox="0 0 16 12" fill="none" xmlns="http://www.w3.org/2000/svg">
<path d="M0 0H16V2H0V0ZM4 5H16V7H4V5ZM9 10H16V12H9V10Z" fill="currentColor"/>
</symbol>

<symbol id="envelope"  viewBox="0 0 20 16" fill="none" xmlns="http://www.w3.org/2000/svg">
<path d="M18 0H2C0.897 0 0 0.897 0 2V14C0 15.103 0.897 16 2 16H18C19.103 16 20 15.103 20 14V2C20 0.897 19.103 0 18 0ZM18 2V2.511L10 8.734L2 2.512V2H18ZM2 14V5.044L9.386 10.789C9.56111 10.9265 9.77733 11.0013 10 11.0013C10.2227 11.0013 10.4389 10.9265 10.614 10.789L18 5.044L18.002 14H2Z" fill="currentColor"/>
</symbol>

<symbol id="phone" viewBox="0 0 19 19" fill="none" xmlns="http://www.w3.org/2000/svg">
<path d="M14.7122 10.2932C14.6194 10.2003 14.5092 10.1265 14.3879 10.0762C14.2666 10.0259 14.1365 10 14.0052 10C13.8739 10 13.7438 10.0259 13.6225 10.0762C13.5012 10.1265 13.391 10.2003 13.2982 10.2932L11.7042 11.8872C10.9652 11.6672 9.58622 11.1672 8.71222 10.2932C7.83822 9.4192 7.33822 8.0402 7.11822 7.3012L8.71222 5.7072C8.80516 5.61441 8.8789 5.50421 8.92921 5.38289C8.97952 5.26158 9.00542 5.13153 9.00542 5.0002C9.00542 4.86887 8.97952 4.73882 8.92921 4.61751C8.8789 4.49619 8.80516 4.38599 8.71222 4.2932L4.71222 0.293201C4.61943 0.200255 4.50922 0.126518 4.38791 0.0762068C4.26659 0.0258961 4.13655 0 4.00522 0C3.87388 0 3.74384 0.0258961 3.62252 0.0762068C3.50121 0.126518 3.391 0.200255 3.29822 0.293201L0.586217 3.0052C0.206217 3.3852 -0.00778346 3.9072 0.000216545 4.4402C0.0232165 5.8642 0.400217 10.8102 4.29822 14.7082C8.19622 18.6062 13.1422 18.9822 14.5672 19.0062H14.5952C15.1232 19.0062 15.6222 18.7982 16.0002 18.4202L18.7122 15.7082C18.8052 15.6154 18.8789 15.5052 18.9292 15.3839C18.9795 15.2626 19.0054 15.1325 19.0054 15.0012C19.0054 14.8699 18.9795 14.7398 18.9292 14.6185C18.8789 14.4972 18.8052 14.387 18.7122 14.2942L14.7122 10.2932ZM14.5852 17.0052C13.3372 16.9842 9.06722 16.6492 5.71222 13.2932C2.34622 9.9272 2.02022 5.6422 2.00022 4.4192L4.00522 2.4142L6.59122 5.0002L5.29822 6.2932C5.18068 6.41065 5.09426 6.55554 5.04677 6.71477C4.99928 6.874 4.99222 7.04256 5.02622 7.2052C5.05022 7.3202 5.63722 10.0472 7.29722 11.7072C8.95722 13.3672 11.6842 13.9542 11.7992 13.9782C11.9618 14.0132 12.1305 14.0067 12.2899 13.9593C12.4492 13.9119 12.5941 13.8252 12.7112 13.7072L14.0052 12.4142L16.5912 15.0002L14.5852 17.0052Z" fill="currentColor"/>
</symbol>

<symbol id="clock" viewBox="0 0 237.54 237.54" >
<path d="M118.77,0c32.8,0,62.49,13.29,83.98,34.79c21.49,21.49,34.79,51.19,34.79,83.98s-13.29,62.49-34.79,83.98 c-21.49,21.49-51.19,34.79-83.98,34.79c-32.8,0-62.49-13.29-83.98-34.79C13.29,181.26,0,151.56,0,118.77s13.29-62.49,34.79-83.98 C56.28,13.29,85.97,0,118.77,0L118.77,0z M109.06,60.2c0-3.59,2.91-6.5,6.5-6.5s6.5,2.91,6.5,6.5v60l45.14,26.76 c3.08,1.82,4.11,5.8,2.29,8.89c-1.82,3.08-5.8,4.11-8.89,2.29l-47.99-28.45c-2.11-1.08-3.55-3.27-3.55-5.79V60.2L109.06,60.2z M193.56,43.98C174.42,24.84,147.98,13,118.77,13c-29.21,0-55.65,11.84-74.79,30.98C24.84,63.12,13,89.56,13,118.77 c0,29.21,11.84,55.65,30.98,74.79c19.14,19.14,45.58,30.98,74.79,30.98c29.21,0,55.65-11.84,74.79-30.98 c19.14-19.14,30.98-45.58,30.98-74.79C224.54,89.56,212.7,63.12,193.56,43.98L193.56,43.98z" /></symbol>

</svg>